<svg xmlns="http://www.w3.org/2000/svg" viewBox="0 0 180 180" width="180" height="180">
  <!-- Base circle with different styling for Apple devices -->
  <rect width="180" height="180" rx="40" fill="#2D3436" />
  
  <!-- Center circular background -->
  <circle cx="90" cy="90" r="70" fill="#2D3436" stroke="#FF5722" stroke-width="4" />
  
  <!-- Wrench icon -->
  <path d="M120,60c-4-6-12-10-20-10c-10,0-18,6-22,14c-1,1.5-2,3-3,4.5L60,90L50,100l6,6l10-10l30-14c1.5-0.7,3-1.4,4.5-2.1
  c8-4,14-10,14-20C120,72,120,60,120,60z" fill="#FFFFFF"/>
  
  <!-- Orange center -->
  <circle cx="90" cy="90" r="15" fill="#FF5722" />
  
  <!-- Text -->
  <text x="90" y="145" font-family="Arial, sans-serif" font-size="18" font-weight="bold" text-anchor="middle" fill="#FFFFFF">PRO MECHANICS</text>
</svg>