<svg xmlns="http://www.w3.org/2000/svg" viewBox="0 0 100 100" width="100" height="100">
  <!-- Brake Rotor -->
  <circle cx="50" cy="50" r="40" fill="#777777"/>
  <circle cx="50" cy="50" r="35" fill="#666666"/>
  <circle cx="50" cy="50" r="15" fill="#444444"/>
  <circle cx="50" cy="50" r="12" fill="#333333"/>
  <circle cx="50" cy="50" r="8" fill="#222222"/>
  
  <!-- Rotor Cooling Vents -->
  <g fill="#555555">
    <path d="M50,50 L85,50 A35,35 0 0,1 83,60 L50,50 Z"/>
    <path d="M50,50 L83,60 A35,35 0 0,1 77,69 L50,50 Z"/>
    <path d="M50,50 L77,69 A35,35 0 0,1 69,77 L50,50 Z"/>
    <path d="M50,50 L69,77 A35,35 0 0,1 60,83 L50,50 Z"/>
    <path d="M50,50 L60,83 A35,35 0 0,1 50,85 L50,50 Z"/>
    <path d="M50,50 L50,85 A35,35 0 0,1 40,83 L50,50 Z"/>
    <path d="M50,50 L40,83 A35,35 0 0,1 31,77 L50,50 Z"/>
    <path d="M50,50 L31,77 A35,35 0 0,1 23,69 L50,50 Z"/>
    <path d="M50,50 L23,69 A35,35 0 0,1 17,60 L50,50 Z"/>
    <path d="M50,50 L17,60 A35,35 0 0,1 15,50 L50,50 Z"/>
    <path d="M50,50 L15,50 A35,35 0 0,1 17,40 L50,50 Z"/>
    <path d="M50,50 L17,40 A35,35 0 0,1 23,31 L50,50 Z"/>
    <path d="M50,50 L23,31 A35,35 0 0,1 31,23 L50,50 Z"/>
    <path d="M50,50 L31,23 A35,35 0 0,1 40,17 L50,50 Z"/>
    <path d="M50,50 L40,17 A35,35 0 0,1 50,15 L50,50 Z"/>
    <path d="M50,50 L50,15 A35,35 0 0,1 60,17 L50,50 Z"/>
    <path d="M50,50 L60,17 A35,35 0 0,1 69,23 L50,50 Z"/>
    <path d="M50,50 L69,23 A35,35 0 0,1 77,31 L50,50 Z"/>
    <path d="M50,50 L77,31 A35,35 0 0,1 83,40 L50,50 Z"/>
    <path d="M50,50 L83,40 A35,35 0 0,1 85,50 L50,50 Z"/>
  </g>
  
  <!-- Brake Caliper -->
  <path d="M85,50 A40,40 0 0,1 75,75 L75,25 A40,40 0 0,1 85,50 Z" fill="#FF5722"/>
  <path d="M82,50 A35,35 0 0,1 75,70 L75,30 A35,35 0 0,1 82,50 Z" fill="#E64A19"/>
  
  <!-- Brake Pads -->
  <rect x="72" y="30" width="5" height="40" fill="#333333" rx="1" ry="1"/>
  
  <!-- Caliper Mounting Bracket -->
  <path d="M75,28 h10 v-5 h-5 v-5 h-5 z" fill="#777777"/>
  <path d="M75,72 h10 v5 h-5 v5 h-5 z" fill="#777777"/>
  
  <!-- Caliper Bolts -->
  <circle cx="80" cy="25" r="2" fill="#AAAAAA"/>
  <circle cx="80" cy="75" r="2" fill="#AAAAAA"/>
  
  <!-- Brake Fluid Line -->
  <path d="M85,40 q5,-5 10,-5" fill="none" stroke="#DDDDDD" stroke-width="2"/>
  <circle cx="95" cy="35" r="2" fill="#BBBBBB"/>
  
  <!-- Highlight Details -->
  <path d="M40,20 A35,35 0 0,1 60,20" fill="none" stroke="#FFFFFF" stroke-width="1" stroke-opacity="0.5"/>
  <path d="M77,42 v16" fill="none" stroke="#FFFFFF" stroke-width="1" stroke-opacity="0.5"/>
</svg>
