<svg xmlns="http://www.w3.org/2000/svg" viewBox="0 0 100 100" width="100" height="100">
  <!-- Base circle -->
  <circle cx="50" cy="50" r="45" fill="#2D3436" />
  <circle cx="50" cy="50" r="40" fill="#2D3436" stroke="#FF5722" stroke-width="2" />
  
  <!-- Wrench icon -->
  <g transform="translate(26, 25) scale(0.5)">
    <path d="M87.3,27.3c-2.8-3.7-7.3-6-12.1-6c-5.5,0-10.3,2.8-13,7.1c-0.5,0.7-1,1.5-1.4,2.3l-6.2,14.6L31.8,22.5l-0.8-0.8
    c-0.6-0.6-1.5-0.6-2.1,0L15.2,35.3c-0.6,0.6-0.6,1.5,0,2.1l0.8,0.8l22.8,22.8L24.1,67c-0.8,0.4-1.6,0.9-2.3,1.4
    c-4.3,2.7-7.1,7.5-7.1,13c0,4.8,2.3,9.3,6,12.1C24,96.4,28.4,98,33,98c5.5,0,10.3-2.8,13-7.1c0.5-0.7,1-1.5,1.4-2.3l6.9-16.2
    l16.2-6.9c0.8-0.4,1.6-0.9,2.3-1.4c4.3-2.7,7.1-7.5,7.1-13C80,52.4,87.3,27.3,87.3,27.3z M37.1,69.2l-6.4,14.9c-0.3,0.6-0.7,1.2-1.1,1.8
    c-1.7,2.8-4.8,4.6-8.2,4.6c-2.9,0-5.6-1-7.6-2.9c-2.3-1.8-3.8-4.6-3.8-7.7c0-3.5,1.8-6.5,4.6-8.2c0.6-0.4,1.2-0.7,1.8-1.1l14.9-6.4
    L37.1,69.2z M68.6,59.3c-0.6,0.4-1.2,0.7-1.8,1.1l-14.9,6.4l-6.4-6.4l6.4-14.9c0.3-0.6,0.7-1.2,1.1-1.8c1.7-2.8,4.8-4.6,8.2-4.6
    c2.9,0,5.6,1,7.6,2.9c2.3,1.8,3.8,4.6,3.8,7.7C72.6,53.2,70.8,56.3,68.6,59.3z" fill="#FFFFFF"/>
  </g>
  
  <!-- Text around the circle -->
  <path id="curve" d="M20,55 A40,40 0 1,1 80,55" fill="none" />
  <text font-family="Arial, sans-serif" font-weight="bold" font-size="12" fill="#FFFFFF">
    <textPath href="#curve" startOffset="28%">PRO MECHANICS</textPath>
  </text>
  
  <!-- Orange elements for accent -->
  <path d="M50,10 L55,18 L45,18 Z" fill="#FF5722" />
  <path d="M50,90 L45,82 L55,82 Z" fill="#FF5722" />
</svg>
