<svg xmlns="http://www.w3.org/2000/svg" viewBox="0 0 100 100" width="100" height="100">
  <!-- Oil Can Body -->
  <path d="M30,30 h40 l10,15 v30 a5,5 0 0 1 -5,5 h-50 a5,5 0 0 1 -5,-5 v-30 z" fill="#777777"/>
  <path d="M30,35 h40 l8,10 v30 a5,5 0 0 1 -5,5 h-46 a5,5 0 0 1 -5,-5 v-30 z" fill="#555555"/>
  
  <!-- Oil Can Top -->
  <rect x="30" y="25" width="40" height="5" fill="#444444" rx="1" ry="1"/>
  
  <!-- Oil Spout -->
  <path d="M60,25 v-5 a2,2 0 0 0 -2,-2 h-16 a2,2 0 0 0 -2,2 v5" fill="#444444"/>
  <rect x="42" y="15" width="16" height="3" fill="#333333" rx="1" ry="1"/>
  
  <!-- Oil Drops -->
  <path d="M50,10 c0,0 -3,5 -3,7 a3,3 0 0 0 6,0 c0,-2 -3,-7 -3,-7 z" fill="#FF5722"/>
  <path d="M40,60 c0,0 -5,8 -5,11 a5,5 0 0 0 10,0 c0,-3 -5,-11 -5,-11 z" fill="#FF5722"/>
  <path d="M55,50 c0,0 -4,6 -4,9 a4,4 0 0 0 8,0 c0,-3 -4,-9 -4,-9 z" fill="#FF5722"/>
  <path d="M70,65 c0,0 -3,5 -3,7 a3,3 0 0 0 6,0 c0,-2 -3,-7 -3,-7 z" fill="#FF5722"/>
  
  <!-- Oil Can Handle -->
  <path d="M20,45 h-5 a3,3 0 0 0 -3,3 v4 a3,3 0 0 0 3,3 h5" fill="none" stroke="#444444" stroke-width="3" stroke-linecap="round"/>
  
  <!-- Label Details -->
  <rect x="33" y="40" width="34" height="20" fill="#FF5722" rx="2" ry="2"/>
  <rect x="36" y="43" width="28" height="14" fill="#FFFFFF" rx="1" ry="1" fill-opacity="0.2"/>
  
  <!-- Label Text (simplified as stroke) -->
  <line x1="40" y1="48" x2="60" y2="48" stroke="#FFFFFF" stroke-width="2" stroke-opacity="0.8"/>
  <line x1="40" y1="52" x2="60" y2="52" stroke="#FFFFFF" stroke-width="2" stroke-opacity="0.8"/>
  <line x1="40" y1="56" x2="50" y2="56" stroke="#FFFFFF" stroke-width="2" stroke-opacity="0.8"/>
  
  <!-- Shine/Highlight on Can -->
  <path d="M35,40 q15,-5 30,0" fill="none" stroke="#FFFFFF" stroke-width="1.5" stroke-opacity="0.3"/>
</svg>
