<svg xmlns="http://www.w3.org/2000/svg" viewBox="0 0 100 100" width="100" height="100">
  <!-- Tire Outer Ring -->
  <circle cx="50" cy="50" r="45" fill="#1A1A1A"/>
  <circle cx="50" cy="50" r="40" fill="#333333"/>
  
  <!-- Tire Tread Pattern -->
  <circle cx="50" cy="50" r="38" fill="none" stroke="#222222" stroke-width="4" stroke-dasharray="5,3"/>
  <circle cx="50" cy="50" r="32" fill="#444444"/>
  
  <!-- Rim -->
  <circle cx="50" cy="50" r="25" fill="#777777"/>
  <circle cx="50" cy="50" r="23" fill="#999999"/>
  <circle cx="50" cy="50" r="16" fill="#777777"/>
  <circle cx="50" cy="50" r="8" fill="#555555"/>
  <circle cx="50" cy="50" r="5" fill="#333333"/>
  
  <!-- Rim Spokes -->
  <g fill="#888888">
    <path d="M50,50 L38,25 A25,25 0 0,1 42,24 L50,50 Z"/>
    <path d="M50,50 L58,25 A25,25 0 0,1 62,26 L50,50 Z"/>
    <path d="M50,50 L75,38 A25,25 0 0,1 74,42 L50,50 Z"/>
    <path d="M50,50 L75,62 A25,25 0 0,1 74,66 L50,50 Z"/>
    <path d="M50,50 L62,75 A25,25 0 0,1 58,74 L50,50 Z"/>
    <path d="M50,50 L38,75 A25,25 0 0,1 34,74 L50,50 Z"/>
    <path d="M50,50 L25,62 A25,25 0 0,1 26,58 L50,50 Z"/>
    <path d="M50,50 L25,38 A25,25 0 0,1 26,34 L50,50 Z"/>
  </g>
  
  <!-- Rim Center Cap -->
  <circle cx="50" cy="50" r="8" fill="#AAAAAA"/>
  <circle cx="50" cy="50" r="6" fill="#888888"/>
  <circle cx="50" cy="50" r="4" fill="#FF5722"/>
  
  <!-- Lug Nut Points -->
  <circle cx="50" cy="29" r="2.5" fill="#333333"/>
  <circle cx="64" cy="36" r="2.5" fill="#333333"/>
  <circle cx="64" cy="64" r="2.5" fill="#333333"/>
  <circle cx="50" cy="71" r="2.5" fill="#333333"/>
  <circle cx="36" cy="64" r="2.5" fill="#333333"/>
  <circle cx="36" cy="36" r="2.5" fill="#333333"/>
  
  <!-- Valve Stem -->
  <rect x="20" y="48" width="5" height="4" rx="1" ry="1" fill="#555555"/>
</svg>
