<svg xmlns="http://www.w3.org/2000/svg" viewBox="0 0 100 100" width="100" height="100">
  <path d="M97.1,20.2c-1.8-2.3-4.6-3.8-7.7-3.8c-3.5,0-6.5,1.8-8.2,4.6c-0.3,0.5-0.6,1-0.9,1.5l-4,9.3L55,11.5l-0.5-0.5
  c-0.4-0.4-1-0.4-1.4,0L39.3,24.8c-0.4,0.4-0.4,1,0,1.4l0.5,0.5l14.4,14.4l-9.3,4c-0.5,0.2-1,0.6-1.5,0.9
  c-2.8,1.7-4.6,4.8-4.6,8.2c0,3.1,1.5,5.9,3.8,7.7c2.2,1.7,5,2.8,8,2.8c3.5,0,6.5-1.8,8.2-4.6c0.3-0.5,0.6-1,0.9-1.5l4.4-10.2
  l10.2-4.4c0.5-0.2,1-0.6,1.5-0.9c2.8-1.7,4.6-4.8,4.6-8.2C80,31.2,97.1,20.2,97.1,20.2z M44.6,49.6l-4,9.4c-0.2,0.4-0.4,0.8-0.7,1.1
  c-1.1,1.8-3,2.9-5.2,2.9c-1.8,0-3.5-0.7-4.8-1.8c-1.5-1.2-2.4-2.9-2.4-4.9c0-2.2,1.1-4.1,2.9-5.2c0.4-0.2,0.8-0.5,1.1-0.7l9.4-4
  L44.6,49.6z M75.6,36.6c-0.4,0.2-0.8,0.5-1.1,0.7l-9.4,4L61,37.2l4-9.4c0.2-0.4,0.4-0.8,0.7-1.1c1.1-1.8,3-2.9,5.2-2.9
  c1.8,0,3.5,0.7,4.8,1.8c1.5,1.2,2.4,2.9,2.4,4.9C78.1,32.7,77.1,34.6,75.6,36.6z" fill="#FF5722"/>
</svg>
